<?xml version="1.0" encoding="utf-8"?>
<!-- Generator: Adobe Illustrator 16.0.0, SVG Export Plug-In . SVG Version: 6.00 Build 0)  -->
<!DOCTYPE svg PUBLIC "-//W3C//DTD SVG 1.1//EN" "http://www.w3.org/Graphics/SVG/1.1/DTD/svg11.dtd">
<svg version="1.1" id="Layer_1" xmlns="http://www.w3.org/2000/svg" xmlns:xlink="http://www.w3.org/1999/xlink" x="0px" y="0px"
	 width="545px" height="337px" viewBox="0 0 545 337" enable-background="new 0 0 545 337" xml:space="preserve">
<text transform="matrix(1 0 0 1 116.5112 38.8633)"><tspan x="0" y="0" fill="#3C5896" font-family="'OpenSans'" font-size="24">2</tspan><tspan x="13.938" y="0" fill="#3C5896" font-family="'OpenSans'" font-size="24">0</tspan><tspan x="27.637" y="0" fill="#3C5896" font-family="'OpenSans'" font-size="24">1</tspan><tspan x="40.4" y="0" fill="#3C5896" font-family="'OpenSans'" font-size="24">6 </tspan><tspan x="61.557" y="0" fill="#3C5896" font-family="'OpenSans'" font-size="24">S</tspan><tspan x="75.089" y="0" fill="#3C5896" font-family="'OpenSans'" font-size="24">u</tspan><tspan x="90.131" y="0" fill="#3C5896" font-family="'OpenSans'" font-size="24">p</tspan><tspan x="105.247" y="0" fill="#3C5896" font-family="'OpenSans'" font-size="24">p</tspan><tspan x="120.458" y="0" fill="#3C5896" font-family="'OpenSans'" font-size="24">o</tspan><tspan x="135.337" y="0" fill="#3C5896" font-family="'OpenSans'" font-size="24" letter-spacing="1">r</tspan><tspan x="146.623" y="0" fill="#3C5896" font-family="'OpenSans'" font-size="24">t</tspan><tspan x="155.671" y="0" fill="#3C5896" font-family="'OpenSans'" font-size="24"> </tspan><tspan x="162.505" y="0" fill="#3C5896" font-family="'OpenSans'" font-size="24">a</tspan><tspan x="176.213" y="0" fill="#3C5896" font-family="'OpenSans'" font-size="24">n</tspan><tspan x="191.4" y="0" fill="#3C5896" font-family="'OpenSans'" font-size="24">d </tspan><tspan x="213.541" y="0" fill="#3C5896" font-family="'OpenSans'" font-size="24">R</tspan><tspan x="228.641" y="0" fill="#3C5896" font-family="'OpenSans'" font-size="24">e</tspan><tspan x="242.633" y="0" fill="#3C5896" font-family="'OpenSans'" font-size="24">v</tspan><tspan x="255.017" y="0" fill="#3C5896" font-family="'OpenSans'" font-size="24">e</tspan><tspan x="268.89" y="0" fill="#3C5896" font-family="'OpenSans'" font-size="24">n</tspan><tspan x="283.981" y="0" fill="#3C5896" font-family="'OpenSans'" font-size="24">u</tspan><tspan x="299.095" y="0" fill="#3C5896" font-family="'OpenSans'" font-size="24">e</tspan></text>
<text transform="matrix(1 0 0 1 30 123.9438)"><tspan x="0" y="0" fill="#3C5896" font-family="'OpenSans'" font-size="10">F</tspan><tspan x="5.461" y="0" fill="#3C5896" font-family="'OpenSans'" font-size="10">o</tspan><tspan x="11.661" y="0" fill="#3C5896" font-family="'OpenSans'" font-size="10">u</tspan><tspan x="17.919" y="0" fill="#3C5896" font-family="'OpenSans'" font-size="10">n</tspan><tspan x="24.236" y="0" fill="#3C5896" font-family="'OpenSans'" font-size="10">d</tspan><tspan x="30.464" y="0" fill="#3C5896" font-family="'OpenSans'" font-size="10">a</tspan><tspan x="36.216" y="0" fill="#3C5896" font-family="'OpenSans'" font-size="10">t</tspan><tspan x="39.966" y="0" fill="#3C5896" font-family="'OpenSans'" font-size="10">i</tspan><tspan x="42.616" y="0" fill="#3C5896" font-family="'OpenSans'" font-size="10">o</tspan><tspan x="48.806" y="0" fill="#3C5896" font-family="'OpenSans'" font-size="10">n </tspan><tspan x="57.741" y="0" fill="#3C5896" font-family="'OpenSans'" font-size="10">G</tspan><tspan x="65.251" y="0" fill="#3C5896" font-family="'OpenSans'" font-size="10">ra</tspan><tspan x="75.175" y="0" fill="#3C5896" font-family="'OpenSans'" font-size="10">n</tspan><tspan x="81.482" y="0" fill="#3C5896" font-family="'OpenSans'" font-size="10">t</tspan><tspan x="85.393" y="0" fill="#3C5896" font-family="'OpenSans'" font-size="10">s</tspan></text>
<text transform="matrix(1 0 0 1 120.3262 123.9438)" fill="#3C5896" font-family="'OpenSans'" font-size="10"> </text>
<text transform="matrix(1 0 0 1 147.3398 123.9438)"><tspan x="0" y="0" fill="#3C5896" font-family="'OpenSans'" font-size="10">$</tspan><tspan x="5.578" y="0" fill="#3C5896" font-family="'OpenSans'" font-size="10">1</tspan><tspan x="10.956" y="0" fill="#3C5896" font-family="'OpenSans'" font-size="10">,</tspan><tspan x="13.577" y="0" fill="#3C5896" font-family="'OpenSans'" font-size="10">0</tspan><tspan x="19.595" y="0" fill="#3C5896" font-family="'OpenSans'" font-size="10">8</tspan><tspan x="25.472" y="0" fill="#3C5896" font-family="'OpenSans'" font-size="10">9</tspan><tspan x="31.21" y="0" fill="#3C5896" font-family="'OpenSans'" font-size="10">,</tspan><tspan x="33.601" y="0" fill="#3C5896" font-family="'OpenSans'" font-size="10">9</tspan><tspan x="39.679" y="0" fill="#3C5896" font-family="'OpenSans'" font-size="10">0</tspan><tspan x="45.817" y="0" fill="#3C5896" font-family="'OpenSans'" font-size="10">4</tspan></text>
<text transform="matrix(1 0 0 1 199.0024 123.9438)" fill="#3C5896" font-family="'OpenSans'" font-size="10"> </text>
<text transform="matrix(1 0 0 1 243.9302 123.9438)"><tspan x="0" y="0" fill="#3C5896" font-family="'OpenSans'" font-size="10">7</tspan><tspan x="5.838" y="0" fill="#3C5896" font-family="'OpenSans'" font-size="10">9</tspan><tspan x="11.826" y="0" fill="#3C5896" font-family="'OpenSans'" font-size="10">%</tspan></text>
<text transform="matrix(1 0 0 1 30 147.9438)"><tspan x="0" y="0" fill="#3C5896" font-family="'OpenSans'" font-size="10">M</tspan><tspan x="9.138" y="0" fill="#3C5896" font-family="'OpenSans'" font-size="10">aj</tspan><tspan x="17.469" y="0" fill="#3C5896" font-family="'OpenSans'" font-size="10">o</tspan><tspan x="23.659" y="0" fill="#3C5896" font-family="'OpenSans'" font-size="10">r</tspan><tspan x="27.831" y="0" fill="#3C5896" font-family="'OpenSans'" font-size="10"> </tspan><tspan x="30.529" y="0" fill="#3C5896" font-family="'OpenSans'" font-size="10">G</tspan><tspan x="38.009" y="0" fill="#3C5896" font-family="'OpenSans'" font-size="10">i</tspan><tspan x="40.789" y="0" fill="#3C5896" font-family="'OpenSans'" font-size="10">f</tspan><tspan x="44.787" y="0" fill="#3C5896" font-family="'OpenSans'" font-size="10">t</tspan><tspan x="48.697" y="0" fill="#3C5896" font-family="'OpenSans'" font-size="10">s</tspan></text>
<text transform="matrix(1 0 0 1 83.6162 147.9438)" fill="#3C5896" font-family="'OpenSans'" font-size="10"> </text>
<text transform="matrix(1 0 0 1 160.6802 147.9438)"><tspan x="0" y="0" fill="#3C5896" font-family="'OpenSans'" font-size="10">$</tspan><tspan x="5.888" y="0" fill="#3C5896" font-family="'OpenSans'" font-size="10">7</tspan><tspan x="11.656" y="0" fill="#3C5896" font-family="'OpenSans'" font-size="10">0</tspan><tspan x="17.573" y="0" fill="#3C5896" font-family="'OpenSans'" font-size="10">,</tspan><tspan x="20.194" y="0" fill="#3C5896" font-family="'OpenSans'" font-size="10">00</tspan><tspan x="32.45" y="0" fill="#3C5896" font-family="'OpenSans'" font-size="10">0</tspan></text>
<text transform="matrix(1 0 0 1 199.0005 147.9438)" fill="#3C5896" font-family="'OpenSans'" font-size="10"> </text>
<text transform="matrix(1 0 0 1 250.0298 147.9438)"><tspan x="0" y="0" fill="#3C5896" font-family="'OpenSans'" font-size="10">5</tspan><tspan x="5.728" y="0" fill="#3C5896" font-family="'OpenSans'" font-size="10">%</tspan></text>
<text transform="matrix(1 0 0 1 30 157.9438)"><tspan x="0" y="0" fill="#3C5896" font-family="'OpenSans'" font-size="10">(</tspan><tspan x="2.869" y="0" fill="#3C5896" font-family="'OpenSans'" font-size="10">$</tspan><tspan x="8.567" y="0" fill="#3C5896" font-family="'OpenSans'" font-size="10">5</tspan><tspan x="14.515" y="0" fill="#3C5896" font-family="'OpenSans'" font-size="10">,</tspan><tspan x="17.146" y="0" fill="#3C5896" font-family="'OpenSans'" font-size="10">00</tspan><tspan x="29.401" y="0" fill="#3C5896" font-family="'OpenSans'" font-size="10">0 </tspan><tspan x="37.917" y="0" fill="#3C5896" font-family="'OpenSans'" font-size="10">a</tspan><tspan x="43.618" y="0" fill="#3C5896" font-family="'OpenSans'" font-size="10">n</tspan><tspan x="49.936" y="0" fill="#3C5896" font-family="'OpenSans'" font-size="10">d </tspan><tspan x="58.861" y="0" fill="#3C5896" font-family="'OpenSans'" font-size="10">a</tspan><tspan x="64.563" y="0" fill="#3C5896" font-family="'OpenSans'" font-size="10">b</tspan><tspan x="70.891" y="0" fill="#3C5896" font-family="'OpenSans'" font-size="10">o</tspan><tspan x="77.071" y="0" fill="#3C5896" font-family="'OpenSans'" font-size="10">v</tspan><tspan x="82.231" y="0" fill="#3C5896" font-family="'OpenSans'" font-size="10">e</tspan><tspan x="87.691" y="0" fill="#3C5896" font-family="'OpenSans'" font-size="10">)</tspan></text>
<text transform="matrix(1 0 0 1 30 181.9434)" fill="#3C5896" font-family="'OpenSans'" font-size="10">I</text>
<text transform="matrix(1 0 0 1 32.9253 181.9434)"><tspan x="0" y="0" fill="#3C5896" font-family="'OpenSans'" font-size="10">n</tspan><tspan x="6.318" y="0" fill="#3C5896" font-family="'OpenSans'" font-size="10">d</tspan><tspan x="12.565" y="0" fill="#3C5896" font-family="'OpenSans'" font-size="10">i</tspan><tspan x="15.405" y="0" fill="#3C5896" font-family="'OpenSans'" font-size="10">v</tspan><tspan x="20.735" y="0" fill="#3C5896" font-family="'OpenSans'" font-size="10">i</tspan><tspan x="23.404" y="0" fill="#3C5896" font-family="'OpenSans'" font-size="10">d</tspan><tspan x="29.662" y="0" fill="#3C5896" font-family="'OpenSans'" font-size="10">u</tspan><tspan x="35.899" y="0" fill="#3C5896" font-family="'OpenSans'" font-size="10">a</tspan><tspan x="41.601" y="0" fill="#3C5896" font-family="'OpenSans'" font-size="10">l </tspan><tspan x="46.928" y="0" fill="#3C5896" font-family="'OpenSans'" font-size="10">G</tspan><tspan x="54.408" y="0" fill="#3C5896" font-family="'OpenSans'" font-size="10">i</tspan><tspan x="57.188" y="0" fill="#3C5896" font-family="'OpenSans'" font-size="10">f</tspan><tspan x="61.187" y="0" fill="#3C5896" font-family="'OpenSans'" font-size="10">t</tspan><tspan x="65.097" y="0" fill="#3C5896" font-family="'OpenSans'" font-size="10">s</tspan></text>
<text transform="matrix(1 0 0 1 102.9463 181.9434)" fill="#3C5896" font-family="'OpenSans'" font-size="10"> </text>
<text transform="matrix(1 0 0 1 160.8652 181.9434)"><tspan x="0" y="0" fill="#3C5896" font-family="'OpenSans'" font-size="10">$</tspan><tspan x="5.878" y="0" fill="#3C5896" font-family="'OpenSans'" font-size="10">3</tspan><tspan x="11.726" y="0" fill="#3C5896" font-family="'OpenSans'" font-size="10">2</tspan><tspan x="17.693" y="0" fill="#3C5896" font-family="'OpenSans'" font-size="10">,</tspan><tspan x="20.455" y="0" fill="#3C5896" font-family="'OpenSans'" font-size="10">4</tspan><tspan x="26.332" y="0" fill="#3C5896" font-family="'OpenSans'" font-size="10">5</tspan><tspan x="32.3" y="0" fill="#3C5896" font-family="'OpenSans'" font-size="10">0</tspan></text>
<text transform="matrix(1 0 0 1 199.0044 181.9434)" fill="#3C5896" font-family="'OpenSans'" font-size="10"> </text>
<text transform="matrix(1 0 0 1 249.915 181.9434)"><tspan x="0" y="0" fill="#3C5896" font-family="'OpenSans'" font-size="10">2</tspan><tspan x="5.858" y="0" fill="#3C5896" font-family="'OpenSans'" font-size="10">%</tspan></text>
<text transform="matrix(1 0 0 1 30 191.9434)"><tspan x="0" y="0" fill="#3C5896" font-family="'OpenSans'" font-size="10">(</tspan><tspan x="3.169" y="0" fill="#3C5896" font-family="'OpenSans'" font-size="10">b</tspan><tspan x="9.497" y="0" fill="#3C5896" font-family="'OpenSans'" font-size="10">e</tspan><tspan x="15.277" y="0" fill="#3C5896" font-family="'OpenSans'" font-size="10">lo</tspan><tspan x="24.167" y="0" fill="#3C5896" font-family="'OpenSans'" font-size="10">w </tspan><tspan x="34.743" y="0" fill="#3C5896" font-family="'OpenSans'" font-size="10">$</tspan><tspan x="40.44" y="0" fill="#3C5896" font-family="'OpenSans'" font-size="10">5</tspan><tspan x="46.388" y="0" fill="#3C5896" font-family="'OpenSans'" font-size="10">,</tspan><tspan x="49.02" y="0" fill="#3C5896" font-family="'OpenSans'" font-size="10">00</tspan><tspan x="61.275" y="0" fill="#3C5896" font-family="'OpenSans'" font-size="10">0</tspan><tspan x="67.033" y="0" fill="#3C5896" font-family="'OpenSans'" font-size="10">)</tspan></text>
<path fill="#3C5896" d="M34.121,212.203h2.427v3.472c-0.377,0.121-0.762,0.212-1.152,0.273c-0.391,0.062-0.843,0.093-1.357,0.093
	c-1.081,0-1.922-0.321-2.524-0.964s-0.903-1.544-0.903-2.703c0-0.742,0.149-1.392,0.447-1.95s0.727-0.984,1.287-1.279
	s1.216-0.442,1.968-0.442c0.762,0,1.471,0.141,2.129,0.42l-0.322,0.732c-0.645-0.273-1.265-0.41-1.86-0.41
	c-0.869,0-1.548,0.259-2.036,0.776s-0.732,1.235-0.732,2.153c0,0.964,0.235,1.694,0.706,2.192s1.161,0.747,2.073,0.747
	c0.495,0,0.978-0.057,1.45-0.171v-2.197h-1.597V212.203z M38.273,209.142c0-0.186,0.045-0.321,0.137-0.407s0.205-0.13,0.342-0.13
	c0.13,0,0.243,0.044,0.337,0.132s0.142,0.224,0.142,0.405c0,0.183-0.047,0.318-0.142,0.408s-0.207,0.134-0.337,0.134
	c-0.137,0-0.25-0.044-0.342-0.134S38.273,209.324,38.273,209.142z M39.152,215.943h-0.811v-5.352h0.811V215.943z M43.536,211.222
	h-1.362v4.722h-0.811v-4.722h-0.957v-0.366l0.957-0.293v-0.298c0-1.314,0.575-1.973,1.724-1.973c0.283,0,0.615,0.058,0.996,0.171
	l-0.21,0.649c-0.312-0.101-0.58-0.151-0.801-0.151c-0.306,0-0.532,0.103-0.679,0.306s-0.22,0.529-0.22,0.979v0.347h1.362V211.222z
	 M46.85,215.372c0.143,0,0.282-0.01,0.415-0.031s0.239-0.043,0.317-0.066v0.62c-0.088,0.043-0.217,0.078-0.388,0.105
	s-0.325,0.041-0.461,0.041c-1.035,0-1.553-0.545-1.553-1.636v-3.184h-0.767v-0.391l0.767-0.337l0.342-1.143h0.469v1.24h1.553v0.63
	h-1.553v3.149c0,0.322,0.077,0.57,0.229,0.742C46.373,215.286,46.583,215.372,46.85,215.372z M52.487,214.483
	c0,0.498-0.186,0.883-0.557,1.152c-0.371,0.271-0.892,0.405-1.562,0.405c-0.71,0-1.263-0.112-1.66-0.337v-0.752
	c0.257,0.131,0.533,0.233,0.828,0.308c0.294,0.075,0.579,0.112,0.852,0.112c0.423,0,0.749-0.067,0.977-0.202
	c0.228-0.135,0.342-0.341,0.342-0.618c0-0.208-0.09-0.386-0.271-0.534s-0.533-0.323-1.057-0.525
	c-0.498-0.186-0.852-0.347-1.062-0.485s-0.366-0.296-0.469-0.472s-0.154-0.386-0.154-0.63c0-0.436,0.177-0.78,0.532-1.032
	c0.354-0.252,0.841-0.379,1.46-0.379c0.576,0,1.139,0.117,1.689,0.352l-0.288,0.659c-0.537-0.221-1.024-0.332-1.46-0.332
	c-0.384,0-0.674,0.061-0.869,0.181c-0.195,0.121-0.293,0.287-0.293,0.498c0,0.144,0.037,0.266,0.11,0.366
	c0.073,0.102,0.191,0.197,0.354,0.288c0.163,0.092,0.475,0.224,0.938,0.396c0.635,0.231,1.063,0.464,1.287,0.698
	C52.375,213.834,52.487,214.129,52.487,214.483z M59.017,211.222h-1.362v4.722h-0.811v-4.722h-0.957v-0.366l0.957-0.293v-0.298
	c0-1.314,0.574-1.973,1.724-1.973c0.283,0,0.615,0.058,0.996,0.171l-0.21,0.649c-0.312-0.101-0.58-0.151-0.801-0.151
	c-0.306,0-0.532,0.103-0.679,0.306s-0.22,0.529-0.22,0.979v0.347h1.362V211.222z M62.707,210.494c0.237,0,0.451,0.02,0.64,0.059
	l-0.112,0.752c-0.222-0.049-0.417-0.073-0.586-0.073c-0.433,0-0.803,0.176-1.111,0.527s-0.461,0.79-0.461,1.313v2.871h-0.811v-5.352
	h0.669l0.093,0.991h0.039c0.198-0.348,0.438-0.616,0.718-0.806C62.064,210.589,62.372,210.494,62.707,210.494z M69.082,213.263
	c0,0.873-0.22,1.554-0.659,2.044s-1.046,0.734-1.821,0.734c-0.479,0-0.903-0.112-1.274-0.337s-0.657-0.547-0.859-0.967
	c-0.202-0.42-0.303-0.911-0.303-1.475c0-0.872,0.218-1.552,0.654-2.038c0.437-0.486,1.042-0.73,1.816-0.73
	c0.749,0,1.344,0.249,1.785,0.747C68.861,211.739,69.082,212.413,69.082,213.263z M65.004,213.263c0,0.684,0.137,1.205,0.41,1.562
	c0.273,0.358,0.676,0.537,1.206,0.537c0.531,0,0.934-0.178,1.208-0.534c0.275-0.356,0.413-0.878,0.413-1.565
	c0-0.68-0.137-1.196-0.413-1.55c-0.275-0.354-0.681-0.53-1.218-0.53c-0.53,0-0.931,0.175-1.201,0.522
	C65.14,212.054,65.004,212.573,65.004,213.263z M77.481,215.943v-3.481c0-0.426-0.091-0.746-0.273-0.959s-0.465-0.32-0.85-0.32
	c-0.504,0-0.877,0.146-1.118,0.435c-0.241,0.29-0.361,0.736-0.361,1.338v2.988h-0.811v-3.481c0-0.426-0.091-0.746-0.273-0.959
	s-0.467-0.32-0.854-0.32c-0.508,0-0.88,0.152-1.116,0.457c-0.236,0.305-0.354,0.803-0.354,1.496v2.808H70.66v-5.352h0.659
	l0.132,0.732h0.039c0.153-0.26,0.369-0.464,0.647-0.61s0.59-0.22,0.935-0.22c0.836,0,1.383,0.303,1.641,0.908h0.039
	c0.16-0.279,0.391-0.501,0.693-0.664c0.303-0.162,0.648-0.244,1.035-0.244c0.605,0,1.059,0.156,1.36,0.467
	c0.301,0.311,0.452,0.808,0.452,1.491v3.491H77.481z M88.458,215.943H87.51l-3.901-5.991H83.57c0.052,0.703,0.078,1.348,0.078,1.934
	v4.058h-0.767v-7.139h0.938l3.892,5.967h0.039c-0.006-0.088-0.021-0.37-0.044-0.847c-0.022-0.477-0.031-0.818-0.024-1.023v-4.097
	h0.776V215.943z M95.084,213.263c0,0.873-0.22,1.554-0.659,2.044s-1.046,0.734-1.821,0.734c-0.479,0-0.903-0.112-1.274-0.337
	s-0.658-0.547-0.859-0.967s-0.303-0.911-0.303-1.475c0-0.872,0.218-1.552,0.654-2.038s1.042-0.73,1.816-0.73
	c0.749,0,1.344,0.249,1.785,0.747S95.084,212.413,95.084,213.263z M91.007,213.263c0,0.684,0.137,1.205,0.41,1.562
	c0.273,0.358,0.675,0.537,1.206,0.537s0.934-0.178,1.208-0.534s0.413-0.878,0.413-1.565c0-0.68-0.138-1.196-0.413-1.55
	s-0.681-0.53-1.218-0.53c-0.531,0-0.931,0.175-1.201,0.522C91.143,212.054,91.007,212.573,91.007,213.263z M100.325,215.943v-3.462
	c0-0.436-0.1-0.762-0.298-0.977c-0.199-0.215-0.51-0.322-0.933-0.322c-0.56,0-0.97,0.151-1.23,0.454
	c-0.261,0.303-0.391,0.803-0.391,1.499v2.808h-0.811v-5.352h0.659l0.132,0.732h0.039c0.166-0.264,0.398-0.468,0.698-0.612
	c0.299-0.145,0.633-0.218,1.001-0.218c0.645,0,1.129,0.156,1.455,0.467c0.325,0.311,0.488,0.808,0.488,1.491v3.491H100.325z
	 M102.697,213.634v-0.742h2.397v0.742H102.697z M108.712,208.805c1.784,0,2.676,0.693,2.676,2.08c0,0.723-0.247,1.279-0.74,1.668
	s-1.199,0.583-2.117,0.583h-0.84v2.808h-0.83v-7.139H108.712L108.712,208.805z M107.691,212.423h0.747
	c0.736,0,1.268-0.118,1.597-0.356c0.329-0.237,0.493-0.618,0.493-1.143c0-0.472-0.155-0.823-0.464-1.055
	c-0.309-0.23-0.791-0.347-1.445-0.347h-0.928V212.423z M115.301,210.494c0.237,0,0.451,0.02,0.64,0.059l-0.112,0.752
	c-0.222-0.049-0.417-0.073-0.586-0.073c-0.433,0-0.803,0.176-1.111,0.527s-0.461,0.79-0.461,1.313v2.871h-0.811v-5.352h0.669
	l0.093,0.991h0.039c0.198-0.348,0.438-0.616,0.718-0.806C114.658,210.589,114.965,210.494,115.301,210.494z M121.676,213.263
	c0,0.873-0.22,1.554-0.659,2.044s-1.047,0.734-1.821,0.734c-0.479,0-0.903-0.112-1.274-0.337s-0.658-0.547-0.859-0.967
	c-0.202-0.42-0.303-0.911-0.303-1.475c0-0.872,0.218-1.552,0.654-2.038c0.436-0.486,1.042-0.73,1.816-0.73
	c0.749,0,1.343,0.249,1.785,0.747C121.455,211.739,121.676,212.413,121.676,213.263z M117.599,213.263
	c0,0.684,0.137,1.205,0.41,1.562c0.273,0.358,0.675,0.537,1.206,0.537c0.53,0,0.933-0.178,1.208-0.534
	c0.275-0.356,0.413-0.878,0.413-1.565c0-0.68-0.138-1.196-0.413-1.55c-0.275-0.354-0.681-0.53-1.218-0.53
	c-0.531,0-0.931,0.175-1.201,0.522C117.733,212.054,117.599,212.573,117.599,213.263z M125.655,211.222h-1.362v4.722h-0.811v-4.722
	h-0.957v-0.366l0.957-0.293v-0.298c0-1.314,0.574-1.973,1.724-1.973c0.283,0,0.615,0.058,0.996,0.171l-0.21,0.649
	c-0.312-0.101-0.58-0.151-0.801-0.151c-0.306,0-0.532,0.103-0.679,0.306s-0.22,0.529-0.22,0.979v0.347h1.362V211.222z
	 M126.563,209.142c0-0.186,0.045-0.321,0.137-0.407c0.091-0.086,0.205-0.13,0.342-0.13c0.13,0,0.242,0.044,0.337,0.132
	c0.094,0.088,0.142,0.224,0.142,0.405c0,0.183-0.047,0.318-0.142,0.408c-0.095,0.09-0.207,0.134-0.337,0.134
	c-0.137,0-0.251-0.044-0.342-0.134C126.608,209.46,126.563,209.324,126.563,209.142z M127.442,215.943h-0.811v-5.352h0.811V215.943z
	 M131.163,215.372c0.143,0,0.281-0.01,0.415-0.031c0.133-0.021,0.239-0.043,0.317-0.066v0.62c-0.088,0.043-0.217,0.078-0.388,0.105
	s-0.325,0.041-0.461,0.041c-1.035,0-1.553-0.545-1.553-1.636v-3.184h-0.767v-0.391l0.767-0.337l0.342-1.143h0.469v1.24h1.553v0.63
	h-1.553v3.149c0,0.322,0.076,0.57,0.229,0.742C130.686,215.286,130.896,215.372,131.163,215.372z M136.798,214.483
	c0,0.498-0.186,0.883-0.557,1.152c-0.371,0.271-0.892,0.405-1.562,0.405c-0.709,0-1.263-0.112-1.66-0.337v-0.752
	c0.257,0.131,0.533,0.233,0.828,0.308c0.295,0.075,0.579,0.112,0.852,0.112c0.423,0,0.749-0.067,0.977-0.202
	c0.228-0.135,0.342-0.341,0.342-0.618c0-0.208-0.09-0.386-0.271-0.534s-0.533-0.323-1.057-0.525
	c-0.498-0.186-0.852-0.347-1.062-0.485s-0.366-0.296-0.469-0.472s-0.154-0.386-0.154-0.63c0-0.436,0.178-0.78,0.532-1.032
	c0.355-0.252,0.842-0.379,1.46-0.379c0.576,0,1.14,0.117,1.689,0.352l-0.288,0.659c-0.537-0.221-1.023-0.332-1.46-0.332
	c-0.384,0-0.674,0.061-0.869,0.181c-0.195,0.121-0.293,0.287-0.293,0.498c0,0.144,0.037,0.266,0.11,0.366
	c0.073,0.102,0.191,0.197,0.354,0.288c0.163,0.092,0.476,0.224,0.938,0.396c0.635,0.231,1.064,0.464,1.287,0.698
	C136.687,213.834,136.798,214.129,136.798,214.483z"/>
<text transform="matrix(1 0 0 1 137.3574 215.9434)" fill="#3C5896" font-family="'OpenSans'" font-size="10"> </text>
<text transform="matrix(1 0 0 1 161.6899 215.9434)"><tspan x="0" y="0" fill="#3C5896" font-family="'OpenSans'" font-size="10">$</tspan><tspan x="5.578" y="0" fill="#3C5896" font-family="'OpenSans'" font-size="10">1</tspan><tspan x="10.795" y="0" fill="#3C5896" font-family="'OpenSans'" font-size="10">3</tspan><tspan x="16.763" y="0" fill="#3C5896" font-family="'OpenSans'" font-size="10">,</tspan><tspan x="19.575" y="0" fill="#3C5896" font-family="'OpenSans'" font-size="10">2</tspan><tspan x="25.512" y="0" fill="#3C5896" font-family="'OpenSans'" font-size="10">5</tspan><tspan x="31.48" y="0" fill="#3C5896" font-family="'OpenSans'" font-size="10">0</tspan></text>
<text transform="matrix(1 0 0 1 198.9995 215.9434)" fill="#3C5896" font-family="'OpenSans'" font-size="10"> </text>
<text transform="matrix(1 0 0 1 250.5 215.9434)"><tspan x="0" y="0" fill="#3C5896" font-family="'OpenSans'" font-size="10">1</tspan><tspan x="5.268" y="0" fill="#3C5896" font-family="'OpenSans'" font-size="10">%</tspan></text>
<text transform="matrix(1 0 0 1 30 225.9434)"><tspan x="0" y="0" fill="#3C5896" font-family="'OpenSans'" font-size="10">a</tspan><tspan x="5.702" y="0" fill="#3C5896" font-family="'OpenSans'" font-size="10">n</tspan><tspan x="12.019" y="0" fill="#3C5896" font-family="'OpenSans'" font-size="10">d </tspan><tspan x="20.945" y="0" fill="#3C5896" font-family="'OpenSans'" font-size="10">B</tspan><tspan x="27.634" y="0" fill="#3C5896" font-family="'OpenSans'" font-size="10">u</tspan><tspan x="33.912" y="0" fill="#3C5896" font-family="'OpenSans'" font-size="10">s</tspan><tspan x="38.792" y="0" fill="#3C5896" font-family="'OpenSans'" font-size="10">i</tspan><tspan x="41.442" y="0" fill="#3C5896" font-family="'OpenSans'" font-size="10">n</tspan><tspan x="47.739" y="0" fill="#3C5896" font-family="'OpenSans'" font-size="10">e</tspan><tspan x="53.55" y="0" fill="#3C5896" font-family="'OpenSans'" font-size="10">s</tspan><tspan x="58.561" y="0" fill="#3C5896" font-family="'OpenSans'" font-size="10">se</tspan><tspan x="69.341" y="0" fill="#3C5896" font-family="'OpenSans'" font-size="10">s</tspan></text>
<text transform="matrix(1 0 0 1 30 249.9434)"><tspan x="0" y="0" fill="#3C5896" font-family="'OpenSans'" font-size="10">P</tspan><tspan x="6.11" y="0" fill="#3C5896" font-family="'OpenSans'" font-size="10">r</tspan><tspan x="10.303" y="0" fill="#3C5896" font-family="'OpenSans'" font-size="10">o</tspan><tspan x="16.493" y="0" fill="#3C5896" font-family="'OpenSans'" font-size="10">g</tspan><tspan x="22.171" y="0" fill="#3C5896" font-family="'OpenSans'" font-size="10">ra</tspan><tspan x="32.095" y="0" fill="#3C5896" font-family="'OpenSans'" font-size="10">m</tspan><tspan x="41.736" y="0" fill="#3C5896" font-family="'OpenSans'" font-size="10">-</tspan><tspan x="45.324" y="0" fill="#3C5896" font-family="'OpenSans'" font-size="10">R</tspan><tspan x="51.606" y="0" fill="#3C5896" font-family="'OpenSans'" font-size="10">e</tspan><tspan x="57.386" y="0" fill="#3C5896" font-family="'OpenSans'" font-size="10">l</tspan><tspan x="60.025" y="0" fill="#3C5896" font-family="'OpenSans'" font-size="10">a</tspan><tspan x="65.777" y="0" fill="#3C5896" font-family="'OpenSans'" font-size="10">t</tspan><tspan x="69.417" y="0" fill="#3C5896" font-family="'OpenSans'" font-size="10">e</tspan><tspan x="75.238" y="0" fill="#3C5896" font-family="'OpenSans'" font-size="10">d</tspan></text>
<text transform="matrix(1 0 0 1 111.5332 249.9434)" fill="#3C5896" font-family="'OpenSans'" font-size="10"> </text>
<text transform="matrix(1 0 0 1 156.2534 249.9434)"><tspan x="0" y="0" fill="#3C5896" font-family="'OpenSans'" font-size="10">$</tspan><tspan x="5.578" y="0" fill="#3C5896" font-family="'OpenSans'" font-size="10">1</tspan><tspan x="10.835" y="0" fill="#3C5896" font-family="'OpenSans'" font-size="10">9</tspan><tspan x="16.913" y="0" fill="#3C5896" font-family="'OpenSans'" font-size="10">4</tspan><tspan x="22.981" y="0" fill="#3C5896" font-family="'OpenSans'" font-size="10">,</tspan><tspan x="25.372" y="0" fill="#3C5896" font-family="'OpenSans'" font-size="10">9</tspan><tspan x="31.11" y="0" fill="#3C5896" font-family="'OpenSans'" font-size="10">3</tspan><tspan x="36.938" y="0" fill="#3C5896" font-family="'OpenSans'" font-size="10">7</tspan></text>
<text transform="matrix(1 0 0 1 199.0015 249.9434)" fill="#3C5896" font-family="'OpenSans'" font-size="10"> </text>
<text transform="matrix(1 0 0 1 244.6602 249.9434)"><tspan x="0" y="0" fill="#3C5896" font-family="'OpenSans'" font-size="10">1</tspan><tspan x="5.338" y="0" fill="#3C5896" font-family="'OpenSans'" font-size="10">4</tspan><tspan x="11.105" y="0" fill="#3C5896" font-family="'OpenSans'" font-size="10">%</tspan></text>
<text transform="matrix(1 0 0 1 30 259.9434)"><tspan x="0" y="0" fill="#3C5896" font-family="'OpenSans'" font-size="10">a</tspan><tspan x="5.702" y="0" fill="#3C5896" font-family="'OpenSans'" font-size="10">n</tspan><tspan x="12.019" y="0" fill="#3C5896" font-family="'OpenSans'" font-size="10">d </tspan><tspan x="20.945" y="0" fill="#3C5896" font-family="'OpenSans'" font-size="10">O</tspan><tspan x="29.073" y="0" fill="#3C5896" font-family="'OpenSans'" font-size="10">t</tspan><tspan x="32.823" y="0" fill="#3C5896" font-family="'OpenSans'" font-size="10">h</tspan><tspan x="39.131" y="0" fill="#3C5896" font-family="'OpenSans'" font-size="10">e</tspan><tspan x="44.901" y="0" fill="#3C5896" font-family="'OpenSans'" font-size="10">r </tspan><tspan x="51.781" y="0" fill="#3C5896" font-family="'OpenSans'" font-size="10">I</tspan><tspan x="54.699" y="0" fill="#3C5896" font-family="'OpenSans'" font-size="10">n</tspan><tspan x="61.007" y="0" fill="#3C5896" font-family="'OpenSans'" font-size="10">c</tspan><tspan x="65.837" y="0" fill="#3C5896" font-family="'OpenSans'" font-size="10">o</tspan><tspan x="72.027" y="0" fill="#3C5896" font-family="'OpenSans'" font-size="10">m</tspan><tspan x="81.489" y="0" fill="#3C5896" font-family="'OpenSans'" font-size="10">e</tspan></text>
<text transform="matrix(1 0 0 1 30 287.9434)"><tspan x="0" y="0" fill="#3C5896" font-family="'OpenSans-Bold'" font-size="10">T</tspan><tspan x="5.321" y="0" fill="#3C5896" font-family="'OpenSans-Bold'" font-size="10">o</tspan><tspan x="11.652" y="0" fill="#3C5896" font-family="'OpenSans-Bold'" font-size="10">t</tspan><tspan x="16.243" y="0" fill="#3C5896" font-family="'OpenSans-Bold'" font-size="10">a</tspan><tspan x="22.403" y="0" fill="#3C5896" font-family="'OpenSans-Bold'" font-size="10">l</tspan><tspan x="25.615" y="0" fill="#3C5896" font-family="'OpenSans-Bold'" font-size="10">:</tspan><tspan x="28.557" y="0" fill="#3C5896" font-family="'OpenSans-Bold'" font-size="10"> </tspan><tspan x="31.254" y="0" fill="#3C5896" font-family="'OpenSans-Bold'" font-size="10">$</tspan><tspan x="37.012" y="0" fill="#3C5896" font-family="'OpenSans-Bold'" font-size="10">1</tspan><tspan x="42.66" y="0" fill="#3C5896" font-family="'OpenSans-Bold'" font-size="10">,</tspan><tspan x="46.031" y="0" fill="#3C5896" font-family="'OpenSans-Bold'" font-size="10">3</tspan><tspan x="52.069" y="0" fill="#3C5896" font-family="'OpenSans-Bold'" font-size="10">7</tspan><tspan x="57.567" y="0" fill="#3C5896" font-family="'OpenSans-Bold'" font-size="10">4</tspan><tspan x="63.655" y="0" fill="#3C5896" font-family="'OpenSans-Bold'" font-size="10">,</tspan><tspan x="66.975" y="0" fill="#3C5896" font-family="'OpenSans-Bold'" font-size="10">5</tspan><tspan x="72.913" y="0" fill="#3C5896" font-family="'OpenSans-Bold'" font-size="10">2</tspan><tspan x="78.981" y="0" fill="#3C5896" font-family="'OpenSans-Bold'" font-size="10">7</tspan></text>
<line fill="none" stroke="#3C5896" x1="27" y1="131.312" x2="282.538" y2="131.312"/>
<polygon fill="#3C5896" points="288,131.312 280.988,128.762 280.988,133.866 "/>
<polyline fill="none" stroke="#D9DBE9" points="27,167.686 277.428,167.686 277.428,145.686 282.714,145.686 "/>
<polygon fill="#D9DBE9" points="288.176,145.686 281.164,143.132 281.164,148.236 "/>
<polyline fill="none" stroke="#9FA7C9" points="27,198.885 271.8,198.885 271.8,174.285 282.714,174.285 "/>
<polygon fill="#9FA7C9" points="288.176,174.285 281.164,171.734 281.164,176.838 "/>
<polyline fill="none" stroke="#ECECF3" points="27,232.547 278.4,232.547 278.4,189.287 283.2,189.287 "/>
<polygon fill="#ECECF3" points="288.662,189.287 281.65,186.734 281.65,191.838 "/>
<line fill="none" stroke="#8C97BF" x1="27" y1="269.238" x2="282.538" y2="269.238"/>
<polygon fill="#8C97BF" points="288,269.238 280.988,266.688 280.988,271.791 "/>
<g>
	<path d="M408.84,202.118l-77.507,77.507c42.806,42.807,112.208,42.807,155.014,0c42.807-42.806,42.807-112.208,0-155.014
		c-42.806-42.806-112.208-42.806-155.014,0c-5.479,5.479-9.032,9.789-13.365,16.213L408.84,202.118z"/>
	<path fill="none" stroke="#000000" stroke-width="0.5" stroke-miterlimit="10" d="M408.84,202.118l-77.507,77.507
		c42.806,42.807,112.208,42.807,155.014,0c42.807-42.806,42.807-112.208,0-155.014c-42.806-42.806-112.208-42.806-155.014,0
		c-5.479,5.479-9.032,9.789-13.365,16.213L408.84,202.118z"/>
	<path fill="#3C5896" d="M408.84,202.118L331.258,279.7c42.848,42.848,112.317,42.848,155.164,0
		c42.848-42.847,42.848-112.317,0-155.164c-42.847-42.848-112.316-42.848-155.164,0c-5.484,5.484-9.041,9.798-13.379,16.228
		L408.84,202.118z"/>
	<path fill="none" stroke="#3C5896" d="M408.84,202.118L331.258,279.7c42.848,42.848,112.317,42.848,155.164,0
		c42.848-42.847,42.848-112.317,0-155.164c-42.847-42.848-112.316-42.848-155.164,0c-5.484,5.484-9.041,9.798-13.379,16.228
		L408.84,202.118z"/>
	<path fill="#7987B5" d="M408.799,202.133l-109.262-9.559c-2.925,33.43,7.979,63.384,31.707,87.113L408.799,202.133z"/>
	<path fill="none" stroke="#7987B5" d="M408.799,202.133l-109.262-9.559c-2.925,33.43,7.979,63.384,31.707,87.113L408.799,202.133z"
		/>
	<path fill="#C5C9DE" d="M407.719,201.417l-89.959-60.528c-6.681,9.878-11.16,19.438-14.473,30.877L407.719,201.417z"/>
	<path fill="none" stroke="#C5C9DE" d="M407.719,201.417l-89.959-60.528c-6.681,9.878-11.16,19.438-14.473,30.877L407.719,201.417z"
		/>
	<path fill="#9FA7C9" d="M408.82,202.121l-105.435-30.247c-1.319,4.6-2.149,8.347-2.897,13.074L408.82,202.121z"/>
	<path fill="none" stroke="#9FA7C9" d="M408.82,202.121l-105.435-30.247c-1.319,4.6-2.149,8.347-2.897,13.074L408.82,202.121z"/>
	<path fill="#ECECF3" d="M408.82,202.12l-108.332-17.167c-0.368,2.334-0.727,5.245-0.933,7.599L408.82,202.12z"/>
	<path fill="none" stroke="#ECECF3" d="M408.82,202.12l-108.332-17.167c-0.368,2.334-0.727,5.245-0.933,7.599L408.82,202.12z"/>
</g>
</svg>
