<?xml version="1.0" encoding="utf-8"?>
<!-- Generator: Adobe Illustrator 16.0.0, SVG Export Plug-In . SVG Version: 6.00 Build 0)  -->
<!DOCTYPE svg PUBLIC "-//W3C//DTD SVG 1.1//EN" "http://www.w3.org/Graphics/SVG/1.1/DTD/svg11.dtd">
<svg version="1.1" id="Layer_1" xmlns="http://www.w3.org/2000/svg" xmlns:xlink="http://www.w3.org/1999/xlink" x="0px" y="0px"
	 width="566px" height="289px" viewBox="0 0 566 289" enable-background="new 0 0 566 289" xml:space="preserve">
<text transform="matrix(1 0 0 1 38.0361 117.5513)"><tspan x="0" y="0" fill="#3C5896" font-family="'OpenSans'" font-size="10">A</tspan><tspan x="6.508" y="0" fill="#3C5896" font-family="'OpenSans'" font-size="10">d</tspan><tspan x="12.756" y="0" fill="#3C5896" font-family="'OpenSans'" font-size="10">m</tspan><tspan x="22.188" y="0" fill="#3C5896" font-family="'OpenSans'" font-size="10">i</tspan><tspan x="24.837" y="0" fill="#3C5896" font-family="'OpenSans'" font-size="10">n</tspan><tspan x="31.105" y="0" fill="#3C5896" font-family="'OpenSans'" font-size="10">i</tspan><tspan x="33.744" y="0" fill="#3C5896" font-family="'OpenSans'" font-size="10">s</tspan><tspan x="38.895" y="0" fill="#3C5896" font-family="'OpenSans'" font-size="10">t</tspan><tspan x="42.645" y="0" fill="#3C5896" font-family="'OpenSans'" font-size="10">r</tspan><tspan x="46.867" y="0" fill="#3C5896" font-family="'OpenSans'" font-size="10">a</tspan><tspan x="52.619" y="0" fill="#3C5896" font-family="'OpenSans'" font-size="10">t</tspan><tspan x="56.369" y="0" fill="#3C5896" font-family="'OpenSans'" font-size="10">i</tspan><tspan x="59.208" y="0" fill="#3C5896" font-family="'OpenSans'" font-size="10">v</tspan><tspan x="64.358" y="0" fill="#3C5896" font-family="'OpenSans'" font-size="10">e</tspan></text>
<text transform="matrix(1 0 0 1 108.1558 117.5513)" fill="#3C5896" font-family="'OpenSans'" font-size="10"> </text>
<text transform="matrix(1 0 0 1 223.2261 117.5513)"><tspan x="0" y="0" fill="#3C5896" font-family="'OpenSans'" font-size="10">$</tspan><tspan x="5.868" y="0" fill="#3C5896" font-family="'OpenSans'" font-size="10">3</tspan><tspan x="11.875" y="0" fill="#3C5896" font-family="'OpenSans'" font-size="10">0</tspan><tspan x="17.874" y="0" fill="#3C5896" font-family="'OpenSans'" font-size="10">9</tspan><tspan x="23.611" y="0" fill="#3C5896" font-family="'OpenSans'" font-size="10">,</tspan><tspan x="26.222" y="0" fill="#3C5896" font-family="'OpenSans'" font-size="10">6</tspan><tspan x="32.25" y="0" fill="#3C5896" font-family="'OpenSans'" font-size="10">8</tspan><tspan x="38.408" y="0" fill="#3C5896" font-family="'OpenSans'" font-size="10">4</tspan></text>
<text transform="matrix(1 0 0 1 38.0361 153.5513)"><tspan x="0" y="0" fill="#3C5896" font-family="'OpenSans'" font-size="10">F</tspan><tspan x="5.341" y="0" fill="#3C5896" font-family="'OpenSans'" font-size="10">u</tspan><tspan x="11.599" y="0" fill="#3C5896" font-family="'OpenSans'" font-size="10">n</tspan><tspan x="17.917" y="0" fill="#3C5896" font-family="'OpenSans'" font-size="10">d</tspan><tspan x="24.165" y="0" fill="#3C5896" font-family="'OpenSans'" font-size="10">r</tspan><tspan x="28.387" y="0" fill="#3C5896" font-family="'OpenSans'" font-size="10">a</tspan><tspan x="34.078" y="0" fill="#3C5896" font-family="'OpenSans'" font-size="10">is</tspan><tspan x="41.598" y="0" fill="#3C5896" font-family="'OpenSans'" font-size="10">i</tspan><tspan x="44.247" y="0" fill="#3C5896" font-family="'OpenSans'" font-size="10">n</tspan><tspan x="50.525" y="0" fill="#3C5896" font-family="'OpenSans'" font-size="10">g</tspan></text>
<text transform="matrix(1 0 0 1 94.1758 153.5513)" fill="#3C5896" font-family="'OpenSans'" font-size="10"> </text>
<text transform="matrix(1 0 0 1 225.0957 153.5513)"><tspan x="0" y="0" fill="#3C5896" font-family="'OpenSans'" font-size="10">$</tspan><tspan x="5.578" y="0" fill="#3C5896" font-family="'OpenSans'" font-size="10">1</tspan><tspan x="10.786" y="0" fill="#3C5896" font-family="'OpenSans'" font-size="10">2</tspan><tspan x="16.513" y="0" fill="#3C5896" font-family="'OpenSans'" font-size="10">6</tspan><tspan x="22.531" y="0" fill="#3C5896" font-family="'OpenSans'" font-size="10">,</tspan><tspan x="24.872" y="0" fill="#3C5896" font-family="'OpenSans'" font-size="10">7</tspan><tspan x="30.89" y="0" fill="#3C5896" font-family="'OpenSans'" font-size="10">3</tspan><tspan x="36.578" y="0" fill="#3C5896" font-family="'OpenSans'" font-size="10">1</tspan></text>
<text transform="matrix(1 0 0 1 38.0361 189.5518)"><tspan x="0" y="0" fill="#3C5896" font-family="'OpenSans'" font-size="10">P</tspan><tspan x="6.11" y="0" fill="#3C5896" font-family="'OpenSans'" font-size="10">r</tspan><tspan x="10.303" y="0" fill="#3C5896" font-family="'OpenSans'" font-size="10">o</tspan><tspan x="16.493" y="0" fill="#3C5896" font-family="'OpenSans'" font-size="10">g</tspan><tspan x="22.171" y="0" fill="#3C5896" font-family="'OpenSans'" font-size="10">ram</tspan><tspan x="41.537" y="0" fill="#3C5896" font-family="'OpenSans'" font-size="10">s</tspan></text>
<text transform="matrix(1 0 0 1 84.4722 189.5518)" fill="#3C5896" font-family="'OpenSans'" font-size="10"> </text>
<text transform="matrix(1 0 0 1 224.0723 189.5518)"><tspan x="0" y="0" fill="#3C5896" font-family="'OpenSans'" font-size="10">$</tspan><tspan x="5.938" y="0" fill="#3C5896" font-family="'OpenSans'" font-size="10">8</tspan><tspan x="11.846" y="0" fill="#3C5896" font-family="'OpenSans'" font-size="10">2</tspan><tspan x="17.693" y="0" fill="#3C5896" font-family="'OpenSans'" font-size="10">9</tspan><tspan x="23.431" y="0" fill="#3C5896" font-family="'OpenSans'" font-size="10">,</tspan><tspan x="26.062" y="0" fill="#3C5896" font-family="'OpenSans'" font-size="10">0</tspan><tspan x="31.83" y="0" fill="#3C5896" font-family="'OpenSans'" font-size="10">2</tspan><tspan x="37.558" y="0" fill="#3C5896" font-family="'OpenSans'" font-size="10">6</tspan></text>
<text transform="matrix(1 0 0 1 38.0361 225.5518)"><tspan x="0" y="0" fill="#3C5896" font-family="'OpenSans'" font-size="10">C</tspan><tspan x="6.349" y="0" fill="#3C5896" font-family="'OpenSans'" font-size="10">o</tspan><tspan x="12.539" y="0" fill="#3C5896" font-family="'OpenSans'" font-size="10">mm</tspan><tspan x="31.422" y="0" fill="#3C5896" font-family="'OpenSans'" font-size="10">u</tspan><tspan x="37.68" y="0" fill="#3C5896" font-family="'OpenSans'" font-size="10">n</tspan><tspan x="43.948" y="0" fill="#3C5896" font-family="'OpenSans'" font-size="10">i</tspan><tspan x="46.617" y="0" fill="#3C5896" font-family="'OpenSans'" font-size="10">c</tspan><tspan x="51.667" y="0" fill="#3C5896" font-family="'OpenSans'" font-size="10">a</tspan><tspan x="57.419" y="0" fill="#3C5896" font-family="'OpenSans'" font-size="10">t</tspan><tspan x="61.169" y="0" fill="#3C5896" font-family="'OpenSans'" font-size="10">i</tspan><tspan x="63.819" y="0" fill="#3C5896" font-family="'OpenSans'" font-size="10">o</tspan><tspan x="70.009" y="0" fill="#3C5896" font-family="'OpenSans'" font-size="10">n</tspan><tspan x="76.267" y="0" fill="#3C5896" font-family="'OpenSans'" font-size="10">s</tspan></text>
<text transform="matrix(1 0 0 1 119.2358 225.5518)" fill="#3C5896" font-family="'OpenSans'" font-size="10"> </text>
<text transform="matrix(1 0 0 1 225.6958 225.5518)"><tspan x="0" y="0" fill="#3C5896" font-family="'OpenSans'" font-size="10">$</tspan><tspan x="5.578" y="0" fill="#3C5896" font-family="'OpenSans'" font-size="10">1</tspan><tspan x="10.985" y="0" fill="#3C5896" font-family="'OpenSans'" font-size="10">0</tspan><tspan x="17.124" y="0" fill="#3C5896" font-family="'OpenSans'" font-size="10">4</tspan><tspan x="23.191" y="0" fill="#3C5896" font-family="'OpenSans'" font-size="10">,</tspan><tspan x="25.082" y="0" fill="#3C5896" font-family="'OpenSans'" font-size="10">1</tspan><tspan x="30.3" y="0" fill="#3C5896" font-family="'OpenSans'" font-size="10">3</tspan><tspan x="35.988" y="0" fill="#3C5896" font-family="'OpenSans'" font-size="10">1</tspan></text>
<text transform="matrix(1 0 0 1 38.0361 261.5518)"><tspan x="0" y="0" fill="#3C5896" font-family="'OpenSans-Bold'" font-size="10">T</tspan><tspan x="5.321" y="0" fill="#3C5896" font-family="'OpenSans-Bold'" font-size="10">o</tspan><tspan x="11.652" y="0" fill="#3C5896" font-family="'OpenSans-Bold'" font-size="10">t</tspan><tspan x="16.243" y="0" fill="#3C5896" font-family="'OpenSans-Bold'" font-size="10">a</tspan><tspan x="22.403" y="0" fill="#3C5896" font-family="'OpenSans-Bold'" font-size="10">l</tspan></text>
<text transform="matrix(1 0 0 1 63.5308 261.5518)"><tspan x="0" y="0" fill="#3C5896" font-family="'OpenSans'" font-size="10">:</tspan><tspan x="2.751" y="0" fill="#3C5896" font-family="'OpenSans'" font-size="10"> </tspan></text>
<text transform="matrix(1 0 0 1 68.9897 261.5518)"><tspan x="0" y="0" fill="#3C5896" font-family="'OpenSans-Bold'" font-size="10">$</tspan><tspan x="5.768" y="0" fill="#3C5896" font-family="'OpenSans-Bold'" font-size="10">1</tspan><tspan x="11.416" y="0" fill="#3C5896" font-family="'OpenSans-Bold'" font-size="10">,</tspan><tspan x="14.787" y="0" fill="#3C5896" font-family="'OpenSans-Bold'" font-size="10">3</tspan><tspan x="20.875" y="0" fill="#3C5896" font-family="'OpenSans-Bold'" font-size="10">6</tspan><tspan x="26.853" y="0" fill="#3C5896" font-family="'OpenSans-Bold'" font-size="10">9</tspan><tspan x="32.621" y="0" fill="#3C5896" font-family="'OpenSans-Bold'" font-size="10">,</tspan><tspan x="35.941" y="0" fill="#3C5896" font-family="'OpenSans-Bold'" font-size="10">5</tspan><tspan x="41.829" y="0" fill="#3C5896" font-family="'OpenSans-Bold'" font-size="10">7</tspan><tspan x="47.957" y="0" fill="#3C5896" font-family="'OpenSans-Bold'" font-size="10">2</tspan></text>
<line fill="none" stroke="#3C5896" x1="38.036" y1="129.703" x2="267.386" y2="129.703"/>
<line fill="none" stroke="#3C5896" x1="38.036" y1="167.574" x2="267.386" y2="167.574"/>
<line fill="none" stroke="#3C5896" x1="38.036" y1="204.73" x2="267.386" y2="204.73"/>
<line fill="none" stroke="#3C5896" x1="38.036" y1="241.887" x2="267.386" y2="241.887"/>
<text transform="matrix(1 0 0 1 127.5474 38.8633)"><tspan x="0" y="0" fill="#3C5896" font-family="'OpenSans'" font-size="24">2</tspan><tspan x="13.938" y="0" fill="#3C5896" font-family="'OpenSans'" font-size="24">0</tspan><tspan x="27.637" y="0" fill="#3C5896" font-family="'OpenSans'" font-size="24">1</tspan><tspan x="40.4" y="0" fill="#3C5896" font-family="'OpenSans'" font-size="24">6 </tspan><tspan x="61.557" y="0" fill="#3C5896" font-family="'OpenSans'" font-size="24">F</tspan><tspan x="74.4" y="0" fill="#3C5896" font-family="'OpenSans'" font-size="24">u</tspan><tspan x="89.442" y="0" fill="#3C5896" font-family="'OpenSans'" font-size="24">n</tspan><tspan x="104.581" y="0" fill="#3C5896" font-family="'OpenSans'" font-size="24" letter-spacing="1">c</tspan><tspan x="117.278" y="0" fill="#3C5896" font-family="'OpenSans'" font-size="24">t</tspan><tspan x="126.327" y="0" fill="#3C5896" font-family="'OpenSans'" font-size="24">i</tspan><tspan x="132.709" y="0" fill="#3C5896" font-family="'OpenSans'" font-size="24">o</tspan><tspan x="147.589" y="0" fill="#3C5896" font-family="'OpenSans'" font-size="24">n</tspan><tspan x="162.656" y="0" fill="#3C5896" font-family="'OpenSans'" font-size="24">a</tspan><tspan x="176.364" y="0" fill="#3C5896" font-family="'OpenSans'" font-size="24">l</tspan><tspan x="183.01" y="0" fill="#3C5896" font-family="'OpenSans'" font-size="24"> </tspan><tspan x="189.844" y="0" fill="#3C5896" font-family="'OpenSans'" font-size="24">E</tspan><tspan x="204.152" y="0" fill="#3C5896" font-family="'OpenSans'" font-size="24">x</tspan><tspan x="217.302" y="0" fill="#3C5896" font-family="'OpenSans'" font-size="24">p</tspan><tspan x="232.513" y="0" fill="#3C5896" font-family="'OpenSans'" font-size="24">e</tspan><tspan x="246.386" y="0" fill="#3C5896" font-family="'OpenSans'" font-size="24">n</tspan><tspan x="261.428" y="0" fill="#3C5896" font-family="'OpenSans'" font-size="24">se</tspan><tspan x="287.399" y="0" fill="#3C5896" font-family="'OpenSans'" font-size="24">s</tspan></text>
<rect x="288.699" y="96.552" fill="#3C5896" width="91.512" height="27.949"/>
<rect x="288.699" y="96.552" fill="none" stroke="#3C5896" width="91.512" height="27.949"/>
<rect x="288.699" y="135.764" fill="#7987B5" width="37.424" height="27.949"/>
<rect x="288.699" y="135.764" fill="none" stroke="#7987B5" width="37.424" height="27.949"/>
<rect x="288.699" y="174.975" fill="#C5C9DE" width="245.051" height="27.95"/>
<rect x="288.699" y="174.975" fill="none" stroke="#C5C9DE" width="245.051" height="27.95"/>
<rect x="288.699" y="214.188" fill="#ECECF3" width="30.743" height="27.948"/>
<rect x="288.699" y="214.188" fill="none" stroke="#ECECF3" width="30.743" height="27.948"/>
</svg>
